<svg width="24" height="24" viewBox="0 0 24 24" fill="none" xmlns="http://www.w3.org/2000/svg">
  <path d="M12 2C6.48 2 2 6.48 2 12s4.48 10 10 10c.83 0 1.5-.67 1.5-1.5 0-.39-.15-.74-.39-1.01-.23-.26-.38-.61-.38-1 0-.83.67-1.5 1.5-1.5H16c3.31 0 6-2.69 6-6 0-4.96-4.48-9-10-9z" stroke="white" stroke-width="2"/>
  <circle cx="7.5" cy="11.5" r="1.5" fill="white"/>
  <circle cx="10.5" cy="7.5" r="1.5" fill="white"/>
  <circle cx="15.5" cy="7.5" r="1.5" fill="white"/>
  <circle cx="17.5" cy="11.5" r="1.5" fill="white"/>
</svg>
